<?xml version="1.0" encoding="UTF-8"?>
<svg xmlns="http://www.w3.org/2000/svg" onmouseup="{ if(window.parent.document.onmouseup) window.parent.document.onmouseup(arguments[0]);}" viewBox="0 0 10500 14800" style="shape-rendering:geometricPrecision; text-rendering:geometricPrecision; image-rendering:optimizeQuality; fill-rule:evenodd; clip-rule:evenodd" version="1.1" height="148mm" width="105mm" xml:space="preserve" xmlns:xlink="http://www.w3.org/1999/xlink">
 <defs>
  <style type="text/css">
   
    .str0 {stroke:#332C2B;stroke-width:250}
    .fil0 {fill:none;fill-rule:nonzero}
    .fil7 {fill:#FEFEFE;fill-rule:nonzero}
    .fil6 {fill:#C9CACA;fill-rule:nonzero}
    .fil2 {fill:#A1A1A1;fill-rule:nonzero}
    .fil8 {fill:#757475;fill-rule:nonzero}
    .fil1 {fill:#5F5D5D;fill-rule:nonzero}
    .fil9 {fill:#332C2B;fill-rule:nonzero}
    .fil3 {fill:#2F1359;fill-rule:nonzero}
    .fil5 {fill:#E687B8;fill-rule:nonzero}
    .fil4 {fill:white;fill-rule:nonzero}
   
  </style>
 </defs>
 <g id="Layer_x0020_1">
  <metadata id="CorelCorpID_0Corel-Layer"/>
  <path class="fil0 str0" d="M6606 7837c-34,37 -73,71 -116,104 323,382 604,851 60,987 -423,96 -702,-264 -856,-656 -603,138 -1353,145 -1947,5 -42,390 -145,799 -643,736 -630,-65 -328,-630 -88,-1056 -73,-58 -134,-123 -180,-193 -59,-32 -110,-66 -150,-104 -276,72 -589,78 -589,-207 0,-170 265,-151 500,-136 39,-149 114,-220 207,-246 1,-221 93,-508 246,-868l3 -5 2 -6 3 -6 1 -2 1 -4 3 -6 2 -6 3 -6 2 -5 1 -1 2 -6 5 -12 3 -6 0 -1 3 -5 8 -18 1 -4 1 -3 11 -24c6,-14 13,-27 19,-41l1 -1c6,-13 13,-25 19,-38l2 -3c6,-12 13,-23 19,-35l3 -4c6,-11 13,-22 19,-32l5 -8c6,-10 13,-19 19,-28l7 -10c5,-8 11,-16 17,-24 3,-5 7,-9 11,-14 4,-6 9,-12 13,-18 5,-6 11,-13 16,-19l0 -1c3,-3 6,-7 9,-10 521,-618 1614,-644 2358,-428 721,178 1016,668 1173,1292 476,-586 871,-1425 1604,-907 996,704 95,2163 -1813,2089z"/>
  <g id="_2718052387312">
   <path class="fil1" d="M6735 7603c-312,993 -3943,1078 -4000,-170l4000 170z"/>
  </g>
  <g id="_2718052386800">
   <g>
    <path class="fil2" d="M6043 7126c950,17 1298,-2160 2376,-1398 1136,803 -195,2588 -2676,1961l300 -563z"/>
   </g>
   <g>
    <path class="fil2" d="M2891 7291c-198,57 -794,-113 -794,142 0,454 794,170 965,57l-171 -199z"/>
   </g>
   <g>
    <path class="fil2" d="M6096 7490c284,312 1248,1220 454,1418 -624,142 -936,-709 -993,-1191l539 -227z"/>
   </g>
   <g>
    <path class="fil2" d="M3785 7859c-57,425 0,1219 -681,1134 -822,-85 -57,-1021 85,-1390l596 256z"/>
   </g>
  </g>
  <g id="_2718052383088">
   <g>
    <g>
     <g>
      <g>
       <path class="fil3" d="M7883 6760c-247,0 -247,-383 0,-383 247,0 247,383 0,383z"/>
      </g>
     </g>
     <g>
      <g>
       <path class="fil4" d="M7841 6568c-55,0 -55,-85 0,-85 55,0 55,85 0,85z"/>
      </g>
     </g>
    </g>
    <g>
     <g>
      <g>
       <path class="fil3" d="M8351 6760c-247,0 -247,-383 0,-383 247,0 247,383 0,383z"/>
      </g>
     </g>
     <g>
      <g>
       <path class="fil4" d="M8309 6568c-55,0 -55,-85 0,-85 55,0 55,85 0,85z"/>
      </g>
     </g>
    </g>
   </g>
   <g>
    <g>
     <path class="fil3" d="M8429 7033c-325,110 -662,76 -880,-211 -20,-26 25,-52 45,-26 203,269 522,289 821,187 32,-11 45,39 14,50z"/>
    </g>
   </g>
   <g>
    <g>
     <path class="fil5" d="M7429 6788c-137,0 -137,-213 0,-213 138,0 138,213 0,213z"/>
    </g>
   </g>
  </g>
  <g id="_2718052381840">
   <path class="fil6" d="M6938 7307c-130,-929 -332,-1726 -1296,-1964 -845,-245 -2141,-179 -2537,714 -391,881 -464,1362 159,1519 808,203 3079,451 3674,-269z"/>
  </g>
  <g id="_2718052379504">
   <g>
    <path class="fil7" d="M5460 6089c-73,328 -434,234 -683,238 -123,2 -272,31 -391,-7 -200,-62 -221,-290 -232,-469 -10,-190 -6,-380 11,-569 410,-91 864,-75 1257,7 54,253 92,553 38,800z"/>
   </g>
   <g>
    <path class="fil7" d="M3859 6499c-165,461 -587,154 -906,-74 43,-114 94,-237 152,-368 122,-274 328,-469 579,-602 97,326 291,721 175,1044z"/>
   </g>
   <g>
    <path class="fil7" d="M4026 6609c123,-193 1010,-194 1336,-112 189,48 436,275 289,493 -95,142 -291,170 -448,178 -277,16 -585,41 -859,4 -101,-13 -233,-36 -302,-120 -86,-105 -144,-340 -16,-443z"/>
   </g>
   <g>
    <path class="fil7" d="M5925 6682c-351,-210 -53,-834 123,-1184 376,206 583,539 712,944 -221,193 -616,372 -835,240z"/>
   </g>
  </g>
  <g id="_2718052381104">
   <path class="fil8" d="M4919 7377c505,98 1750,-791 2113,-327 438,561 -971,815 -1278,873 -1019,193 -3268,120 -3173,-543 69,-486 443,-337 713,-249 544,178 1049,262 1625,246z"/>
  </g>
  <g id="_2718052378000">
   <g>
    <path class="fil9" d="M5309 5398c0,0 -1,9 -3,26 -1,17 -5,41 -6,72 -2,32 -5,70 -6,113 -1,43 -3,92 -6,145 -4,52 -8,108 -21,164l-4 21 -1 5 -1 3 0 1 0 1c1,-6 0,-2 0,-3l-3 11 -7 23c-3,6 -6,10 -8,15 -11,19 -26,40 -46,53 -20,14 -44,25 -72,32 -28,6 -59,10 -91,13 -64,4 -134,0 -208,1 -74,3 -142,7 -207,4 -32,-2 -63,-6 -92,-11 -28,-7 -54,-17 -76,-29 -21,-14 -37,-31 -51,-51 -5,-7 -16,-28 -20,-37 -5,-11 -10,-23 -14,-37 -16,-52 -24,-108 -30,-159 -10,-104 -12,-194 -17,-256 -4,-63 -10,-98 -10,-98 0,0 -5,35 -15,97 -10,61 -26,149 -31,259 -3,54 -3,115 11,181 3,16 8,34 14,52 7,20 10,27 20,49 18,36 47,68 80,93 69,47 149,65 223,70 75,7 149,2 217,1 69,-3 141,0 216,-7 38,-3 76,-9 114,-21 38,-12 76,-31 109,-58 33,-27 57,-61 72,-100 4,-10 8,-21 10,-29l5 -24 3 -11 1 -4 0 -1 0 -1 0 -3 1 -7 2 -24c8,-65 4,-125 0,-179 -4,-55 -11,-103 -18,-147 -7,-42 -13,-80 -18,-111 -10,-61 -16,-97 -16,-97z"/>
   </g>
   <g>
    <path class="fil9" d="M3600 5661c0,0 0,6 -1,17 0,11 -2,28 0,49 1,22 3,48 8,77 4,29 10,62 18,97 8,35 17,73 27,112 9,39 18,80 26,122 8,41 14,84 15,125 0,41 -1,81 -14,116 -2,10 -6,18 -10,26l-6 13 -3 6 0 1 0 0c2,-3 -5,7 4,-6l-1 1 -3 4 -21 28c-4,6 -7,7 -9,9 -3,1 -5,3 -7,5 -21,17 -51,28 -85,28 -35,-1 -74,-10 -109,-21 -36,-12 -71,-25 -103,-39 -64,-28 -119,-53 -159,-69 -19,-8 -35,-12 -46,-16 -11,-3 -17,-5 -17,-5 0,0 18,16 50,43 16,14 35,31 58,49 22,19 47,40 77,61 30,22 64,44 103,64 39,19 83,39 137,46 54,6 119,-4 172,-45l20 -16c6,-6 14,-12 16,-16l22 -28 3 -3 2 -2c9,-14 2,-4 5,-7l0 -1 0 -1 5 -10 10 -19c7,-13 13,-26 16,-40 19,-55 20,-111 17,-163 -3,-26 -6,-52 -12,-75 -4,-25 -11,-48 -17,-70 -14,-45 -30,-86 -46,-125 -16,-38 -32,-73 -48,-105 -15,-32 -29,-62 -41,-88 -11,-26 -22,-49 -29,-67 -9,-19 -14,-35 -18,-46 -4,-11 -6,-16 -6,-16z"/>
   </g>
   <g>
    <path class="fil9" d="M6181 5682c0,0 -20,13 -49,43 -29,30 -67,75 -104,136 -38,61 -76,136 -103,223 -14,43 -25,90 -30,140 -5,50 -4,103 12,159 9,28 22,56 41,81l16 18 2 2 5 5 0 1 4 2 6 6 14 11c4,3 8,7 16,11 13,9 28,17 42,24 13,5 27,9 41,13 27,6 54,10 80,8 51,-1 97,-14 136,-29 40,-15 75,-33 106,-51 62,-36 108,-72 140,-97 33,-25 51,-40 51,-40 0,0 -23,5 -62,18 -39,12 -93,30 -159,52 -64,18 -140,40 -211,34 -17,-1 -33,-5 -49,-10 -8,-3 -15,-6 -22,-9 -6,-4 -11,-7 -17,-10 -2,0 -7,-5 -11,-8l-12 -12 -7 -6 -3 -3 -1 0 0 -1c2,2 -5,-4 4,4l-1 -1 -7 -8c-8,-12 -15,-26 -20,-42 -10,-33 -13,-73 -11,-113 2,-40 8,-81 16,-121 16,-80 39,-155 60,-219 22,-64 43,-117 59,-154 17,-37 28,-57 28,-57z"/>
   </g>
   <g>
    <path class="fil9" d="M4912 6582c0,0 45,11 126,23 39,6 88,13 142,24 53,11 114,26 168,57 27,15 52,34 69,59 2,2 6,7 6,8l8 12c5,8 11,16 13,22 3,6 6,12 8,20 3,7 4,13 5,19 3,25 -5,39 -29,58 -24,17 -59,31 -96,42 -76,20 -163,27 -250,32 -43,2 -88,2 -131,0l-69 -4 -70 -2c-93,-1 -183,-1 -270,-7 -86,-8 -175,-16 -238,-46 -15,-7 -28,-16 -36,-25 -4,-3 -8,-10 -10,-11 -4,-9 -10,-21 -12,-27 -4,-10 -9,-25 -8,-37 0,-12 2,-24 9,-35 12,-23 38,-44 66,-61 28,-18 59,-31 90,-43 125,-43 240,-58 319,-66 40,-4 72,-6 93,-6 22,0 33,2 33,2 0,0 -44,-16 -126,-22 -40,-3 -90,-5 -147,-3 -58,3 -122,8 -193,25 -35,9 -72,20 -109,37 -37,18 -77,43 -107,87 -15,22 -25,50 -28,78 -3,29 2,55 10,84 5,14 8,20 12,31 8,17 16,28 26,40 20,23 44,39 66,52 47,24 93,37 140,48 46,10 93,17 139,21 94,8 187,10 279,11l68 1 68 4c49,1 96,-1 143,-3 93,-6 185,-20 275,-48 45,-15 90,-33 131,-68 20,-17 39,-42 50,-70 12,-29 11,-61 5,-87 -3,-13 -7,-25 -12,-36 -4,-11 -11,-22 -17,-32 -7,-11 -12,-19 -18,-26l-9 -11c-5,-7 -8,-9 -12,-14 -30,-32 -67,-54 -102,-69 -70,-30 -137,-36 -194,-40 -57,-3 -106,-2 -147,-1 -40,2 -72,3 -94,3 -21,0 -33,0 -33,0z"/>
   </g>
  </g>
 </g>
</svg>